<svg
  width="100%"
  height="100%"
  viewBox="0 0 100 100"
  preserveAspectRatio="xMaxYMax"
  xmlns="http://www.w3.org/2000/svg"
>
  <defs><style>.fill { fill: currentColor; }</style></defs>
  <g class="fill">
    <path d="M86.064,2.621l.782,16.166A48.4,48.4,0,0,0,2.4,41.146a2.344,2.344,0,0,0,2.305,2.77h9.58a2.343,2.343,0,0,0,2.279-1.809A34.358,34.358,0,0,1,78.479,30.986l-19.817-.949a2.343,2.343,0,0,0-2.452,2.23q0,.057,0,.114V41.64a2.343,2.343,0,0,0,2.344,2.344H97.656A2.343,2.343,0,0,0,100,41.64V2.51A2.343,2.343,0,0,0,97.656.166H88.4a2.343,2.343,0,0,0-2.342,2.345C86.062,2.548,86.063,2.584,86.064,2.621Z"/>
    <path d="M49.967,84.541A34.3,34.3,0,0,1,21.451,69.346l19.883.951a2.344,2.344,0,0,0,2.452-2.23q0-.057,0-.114V58.7a2.344,2.344,0,0,0-2.344-2.344H2.344A2.344,2.344,0,0,0,0,58.7V97.822a2.343,2.343,0,0,0,2.344,2.344h9.248a2.344,2.344,0,0,0,2.346-2.341c0-.04,0-.08,0-.12l-.811-16.127a48.4,48.4,0,0,0,84.41-22.393,2.344,2.344,0,0,0-2.3-2.769H85.65a2.343,2.343,0,0,0-2.279,1.808A34.347,34.347,0,0,1,49.967,84.541Z"/>
  </g>
</svg>
