<svg
  width="100%"
  height="100%"
  viewBox="0 0 100 100"
  preserveAspectRatio="xMaxYMax"
  xmlns="http://www.w3.org/2000/svg"
>
  <g fill="#000">
    <path d="M86.06,2.62l.79,16.17A48.41,48.41,0,0,0,2.4,41.15a2.35,2.35,0,0,0,1.88,2.73,3,3,0,0,0,.43,0h9.58a2.34,2.34,0,0,0,2.27-1.81A34.36,34.36,0,0,1,78.48,31L58.66,30a2.34,2.34,0,0,0-2.45,2.23v9.37A2.34,2.34,0,0,0,58.55,44H97.66A2.34,2.34,0,0,0,100,41.64V2.51A2.34,2.34,0,0,0,97.66.17H88.4a2.34,2.34,0,0,0-2.34,2.34Z"/><path d="M50,84.54A34.32,34.32,0,0,1,21.45,69.35l19.88,1a2.35,2.35,0,0,0,2.46-2.23V58.7a2.35,2.35,0,0,0-2.34-2.35H2.34A2.35,2.35,0,0,0,0,58.7V97.82a2.35,2.35,0,0,0,2.34,2.35h9.25a2.35,2.35,0,0,0,2.35-2.34V97.7l-.82-16.12A48.41,48.41,0,0,0,97.54,59.19a2.36,2.36,0,0,0-1.88-2.74,3.11,3.11,0,0,0-.43,0H85.65a2.34,2.34,0,0,0-2.28,1.8A34.35,34.35,0,0,1,50,84.54Z"/>
  </g>
</svg>
