<svg
  width="100%"
  height="100%"
  viewBox="0 0 100 100"
  preserveAspectRatio="xMaxYMax"
  xmlns="http://www.w3.org/2000/svg"
>
  <defs><style>.fill {fill: #000;}</style></defs>
  <g class="fill">
    <path d="M97.431,80H2.576A2.31,2.31,0,0,0,0,82.569V97.431A2.31,2.31,0,0,0,2.576,100H97.431A2.307,2.307,0,0,0,100,97.431V82.569A2.307,2.307,0,0,0,97.431,80Z"/>
    <path d="M97.431,40H2.576A2.31,2.31,0,0,0,0,42.569V57.431A2.31,2.31,0,0,0,2.576,60H97.431A2.307,2.307,0,0,0,100,57.431V42.569A2.307,2.307,0,0,0,97.431,40Z"/>
    <path d="M97.431,0H2.576A2.31,2.31,0,0,0,0,2.569V17.431A2.31,2.31,0,0,0,2.576,20H97.431A2.307,2.307,0,0,0,100,17.431V2.569A2.307,2.307,0,0,0,97.431,0Z"/>
  </g>
</svg>
