<svg
  width="100%"
  height="100%"
  viewBox="0 0 100 100"
  preserveAspectRatio="xMaxYMax"
  xmlns="http://www.w3.org/2000/svg"
>
  <defs><style>.fill {fill: #000;}</style></defs>
  <path class="fill" d="M99.216,80.279,80.157,61.221c-.035-.035-.067-.052-.1-.086A42.015,42.015,0,1,0,42.1,85.311,41.87,41.87,0,0,0,71.044,73.659c.019.019.031.049.049.067l25.14,25.109c.125.106.219.031.319-.069l.1-.1a.828.828,0,0,0,.16-.523,86.371,86.371,0,0,1,3.1-15.762A2.013,2.013,0,0,0,99.216,80.279ZM42.1,69.907a26.7,26.7,0,1,1,26.7-26.695A26.694,26.694,0,0,1,42.1,69.907Z"/>
</svg>
