<svg
  width="100%"
  height="100%"
  viewBox="0 0 100 100"
  preserveAspectRatio="xMaxYMax"
  xmlns="http://www.w3.org/2000/svg"
>
  <defs><style>.fill {fill: #fff;}</style></defs>
  <path class="fill" d="M98.922,83.408a2.535,2.535,0,0,1,0,4.013L87.336,99.014a2.824,2.824,0,0,1-1.987.986,2.862,2.862,0,0,1-2.034-1.048L49.977,65.606,16.654,98.922a2.83,2.83,0,0,1-1.988.986,2.843,2.843,0,0,1-2.033-1.056L1.048,87.259a2.669,2.669,0,0,1,0-4.013L34.371,49.931,1.063,16.631a2.88,2.88,0,0,1-.971-2,2.9,2.9,0,0,1,.971-2.011l11.6-11.593A2.842,2.842,0,0,1,14.682.031a2.84,2.84,0,0,1,1.987.978L49.977,34.317,83.3.994A2.526,2.526,0,0,1,87.305.978l11.6,11.593a2.865,2.865,0,0,1,.971,2,2.9,2.9,0,0,1-.971,2.011L65.583,49.9Z"/>
</svg>
